Coordinates
version=1
nRows=17
nColumns=38
inDegrees=no

Units are S.I. units (second, meters, Newtons, ...)
If the header above contains a line with 'inDegrees', this indicates whether rotational values are in degrees (yes) or radians (no).

endheader
time	pelvis_tilt	pelvis_list	pelvis_rotation	pelvis_tx	pelvis_ty	pelvis_tz	hip_flexion_r	hip_adduction_r	hip_rotation_r	knee_angle_r	ankle_angle_r	subtalar_angle_r	mtp_angle_r	hip_flexion_l	hip_adduction_l	hip_rotation_l	knee_angle_l	ankle_angle_l	subtalar_angle_l	mtp_angle_l	lumbar_extension	lumbar_bending	lumbar_rotation	arm_flex_r	arm_add_r	arm_rot_r	elbow_flex_r	pro_sup_r	wrist_flex_r	wrist_dev_r	arm_flex_l	arm_add_l	arm_rot_l	elbow_flex_l	pro_sup_l	wrist_flex_l	wrist_dev_l
14.73	-3.06905	1.38676	-1.57068	0.669096	-0.215938	0.945481	0.0177955	-0.19007	-0.328921	0.908667	-0.00318205	0	0	-0.00177535	-0.00156121	-0.347088	0.265473	-0.0160909	0	0	-0.386612	-0.0183065	0.0594962	0.261439	-0.591671	0.030586	1.90264	1.5708	0	0	0.452197	-0.269456	0.223623	1.60126	1.5708	0	0
14.74	-3.05758	1.38712	-1.58622	0.670242	-0.221491	0.944943	-0.00506878	-0.189197	-0.338161	0.895074	-0.0101324	0	0	0.00457947	0.000128579	-0.351192	0.264528	-0.0215629	0	0	-0.38544	-0.019354	0.062177	0.262972	-0.590484	0.0353409	1.90669	1.5708	0	0	0.449575	-0.271469	0.219007	1.60198	1.5708	0	0
14.75	-3.04715	1.38745	-1.6005	0.671474	-0.227116	0.944349	-0.0289889	-0.187722	-0.349232	0.876916	-0.0202147	0	0	0.0112688	0.00143441	-0.354764	0.264043	-0.0264156	0	0	-0.384481	-0.0201006	0.0648487	0.265062	-0.589171	0.0410305	1.91136	1.5708	0	0	0.447423	-0.273496	0.214293	1.6029	1.5708	0	0
14.76	-3.03608	1.38819	-1.61562	0.672897	-0.232816	0.943687	-0.0527532	-0.185692	-0.360759	0.855712	-0.0274766	0	0	0.0187399	0.00247437	-0.358961	0.26381	-0.0317414	0	0	-0.383007	-0.0211218	0.0677422	0.267199	-0.587264	0.0461221	1.91576	1.5708	0	0	0.445781	-0.276042	0.209992	1.60336	1.5708	0	0
14.77	-3.024	1.38958	-1.63174	0.674435	-0.238675	0.942947	-0.0757713	-0.18314	-0.372084	0.833272	-0.0226652	0	0	0.0275236	0.00331458	-0.363177	0.264131	-0.0376723	0	0	-0.38103	-0.0223945	0.0705611	0.269456	-0.585266	0.0507123	1.91975	1.5708	0	0	0.444514	-0.278985	0.205987	1.60336	1.5708	0	0
14.78	-3.00875	1.39174	-1.65123	0.67604	-0.244634	0.942103	-0.0980589	-0.180123	-0.382662	0.807469	-0.0128263	0	0	0.0373246	0.00448298	-0.367712	0.264491	-0.0439563	0	0	-0.378364	-0.0242082	0.0736949	0.271426	-0.583143	0.0546744	1.92383	1.5708	0	0	0.443716	-0.28218	0.20278	1.603	1.5708	0	0
14.79	-2.99255	1.39467	-1.67223	0.677809	-0.250731	0.941181	-0.12012	-0.175316	-0.39255	0.774736	-0.00255704	0	0	0.0480626	0.00533543	-0.37278	0.264789	-0.0506591	0	0	-0.375124	-0.0261952	0.0773891	0.274025	-0.580995	0.0591825	1.92763	1.5708	0	0	0.443414	-0.286229	0.200384	1.60269	1.5708	0	0
14.8	-2.97815	1.3977	-1.69225	0.679791	-0.257003	0.940247	-0.143235	-0.167933	-0.40211	0.733346	0.0122276	0	0	0.0589244	0.00528061	-0.378719	0.264992	-0.0572991	0	0	-0.372236	-0.0280655	0.0820748	0.277387	-0.579049	0.0638803	1.93129	1.5708	0	0	0.443778	-0.290514	0.197773	1.60268	1.5708	0	0
14.81	-2.96659	1.40111	-1.71012	0.681971	-0.263502	0.939308	-0.165971	-0.158335	-0.411066	0.684915	0.0359274	0	0	0.0703961	0.00392703	-0.386087	0.265475	-0.0641576	0	0	-0.36965	-0.0295503	0.0876874	0.281529	-0.577306	0.0687009	1.93486	1.5708	0	0	0.444939	-0.294687	0.194769	1.60256	1.5708	0	0
14.82	-2.96058	1.40455	-1.72313	0.68428	-0.270277	0.938464	-0.187291	-0.147186	-0.419452	0.632036	0.0650612	0	0	0.0819141	0.00104467	-0.394056	0.265954	-0.0714208	0	0	-0.368095	-0.0300528	0.0943814	0.286504	-0.575809	0.0732492	1.93858	1.5708	0	0	0.446894	-0.29857	0.191607	1.60176	1.5708	0	0
14.83	-2.96282	1.40757	-1.72832	0.686681	-0.277332	0.937801	-0.207148	-0.135052	-0.428627	0.577984	0.0913762	0	0	0.093049	-0.00374508	-0.401843	0.266744	-0.0784525	0	0	-0.368197	-0.0291561	0.101777	0.292135	-0.574787	0.078384	1.94278	1.5708	0	0	0.449688	-0.302218	0.189379	1.60035	1.5708	0	0
14.84	-2.97432	1.41058	-1.72379	0.688989	-0.2848	0.93733	-0.223798	-0.122143	-0.439233	0.526971	0.111546	0	0	0.104566	-0.0101859	-0.407718	0.267937	-0.0855484	0	0	-0.369674	-0.0261703	0.108988	0.299394	-0.574743	0.0844841	1.94667	1.5708	0	0	0.452985	-0.305239	0.186323	1.59843	1.5708	0	0
14.85	-2.99526	1.41391	-1.70849	0.69104	-0.292538	0.937065	-0.236154	-0.108769	-0.451533	0.482373	0.124344	0	0	0.116493	-0.0180422	-0.41197	0.268835	-0.0941447	0	0	-0.37202	-0.0207746	0.115619	0.307363	-0.575856	0.09044	1.95055	1.5708	0	0	0.456451	-0.30738	0.182737	1.59569	1.5708	0	0
14.86	-3.02559	1.41734	-1.68273	0.692955	-0.300407	0.936994	-0.245397	-0.0940041	-0.463251	0.441675	0.13011	0	0	0.128489	-0.0277975	-0.416343	0.269932	-0.102868	0	0	-0.375306	-0.0136549	0.122407	0.314609	-0.577763	0.0952837	1.95535	1.5708	0	0	0.460618	-0.308401	0.179647	1.59224	1.5708	0	0
14.87	-3.06042	1.42155	-1.65173	0.694855	-0.30842	0.936984	-0.251643	-0.0774505	-0.470602	0.402641	0.130294	0	0	0.141571	-0.038637	-0.420387	0.271349	-0.110076	0	0	-0.378432	-0.00584783	0.12887	0.321955	-0.579957	0.100567	1.96045	1.5708	0	0	0.464908	-0.309019	0.176177	1.58887	1.5708	0	0
14.88	-3.08998	1.42689	-1.62565	0.696691	-0.316491	0.936944	-0.254179	-0.0618336	-0.474511	0.366998	0.127703	0	0	0.155482	-0.0486587	-0.425255	0.271729	-0.118542	0	0	-0.380514	0.000939253	0.134912	0.329293	-0.58176	0.105566	1.96549	1.5708	0	0	0.469105	-0.309425	0.172385	1.58606	1.5708	0	0
14.89	-3.11085	1.43296	-1.60761	0.698389	-0.324558	0.936921	-0.253707	-0.0484397	-0.476741	0.335268	0.12333	0	0	0.169481	-0.0571008	-0.430389	0.270684	-0.12875	0	0	-0.381806	0.00625694	0.140088	0.336482	-0.583063	0.110461	1.96994	1.5708	0	0	0.47355	-0.309729	0.168677	1.58365	1.5708	0	0
